# xmcd
#
# Track frame offsets:
#	150
#	14448
#	26782
#	43276
#	63914
#	84472
#	103696
#	116542
#	133252
#	148176
#	166510
#	183173
#	199646
#	215898
#	234928
#	252760
#	265935
#	283592
#	300286
#	316274
#
# Disc length: 4479 seconds
#
# Revision: 1
# Processed by: cddbd v1.5.2PL0 Copyright (c) Steve Scherf et al.
# Submitted via: audiograbber 1.83.01
#
DISCID=19117d14
DTITLE=Leann Rimes - JTG047
DYEAR=1900
DGENRE=
TTITLE0=Big Deal
TTITLE1=Blue
TTITLE2=Can't Fight The Moonlight
TTITLE3=Commitment
TTITLE4=Feels Like Home
TTITLE5=How Do I Live
TTITLE6=Hurt Me
TTITLE7=I Need You
TTITLE8=The Light In Your Eyes
TTITLE9=Looking Through Your Eyes
TTITLE10=On The Side Of Angels
TTITLE11=One Way Ticket
TTITLE12=Rock Me
TTITLE13=Sittin' On Top of the World
TTITLE14=Surrender
TTITLE15=These Arms of Mine
TTITLE16=Unchained Melody
TTITLE17=Undeniable
TTITLE18=You Light Up My Life
TTITLE19=Written In the Stars
EXTD=
EXTT0=
EXTT1=
EXTT2=
EXTT3=
EXTT4=
EXTT5=
EXTT6=
EXTT7=
EXTT8=
EXTT9=
EXTT10=
EXTT11=
EXTT12=
EXTT13=
EXTT14=
EXTT15=
EXTT16=
EXTT17=
EXTT18=
EXTT19=
PLAYORDER=
